<mxfile host="65bd71144e">
    <diagram id="azpiQvu3mpwtCU8szLEb" name="Página-1">
        <mxGraphModel dx="1307" dy="725" grid="1" gridSize="10" guides="1" tooltips="1" connect="1" arrows="1" fold="1" page="1" pageScale="1" pageWidth="850" pageHeight="1100" math="0" shadow="0">
            <root>
                <mxCell id="0"/>
                <mxCell id="1" parent="0"/>
                <mxCell id="4" style="edgeStyle=none;html=1;fontSize=24;" edge="1" parent="1" source="3">
                    <mxGeometry relative="1" as="geometry">
                        <mxPoint x="240" y="280" as="targetPoint"/>
                        <Array as="points">
                            <mxPoint x="420" y="200"/>
                            <mxPoint x="240" y="200"/>
                        </Array>
                    </mxGeometry>
                </mxCell>
                <mxCell id="5" style="edgeStyle=none;html=1;fontSize=24;" edge="1" parent="1" source="3">
                    <mxGeometry relative="1" as="geometry">
                        <mxPoint x="600" y="280" as="targetPoint"/>
                        <Array as="points">
                            <mxPoint x="420" y="200"/>
                            <mxPoint x="600" y="200"/>
                        </Array>
                    </mxGeometry>
                </mxCell>
                <mxCell id="3" value="&lt;font style=&quot;font-size: 24px;&quot;&gt;Animal&lt;/font&gt;" style="html=1;" vertex="1" parent="1">
                    <mxGeometry x="320" y="80" width="200" height="80" as="geometry"/>
                </mxCell>
                <mxCell id="8" style="edgeStyle=none;html=1;fontSize=18;" edge="1" parent="1" source="6">
                    <mxGeometry relative="1" as="geometry">
                        <mxPoint x="120" y="440" as="targetPoint"/>
                        <Array as="points">
                            <mxPoint x="240" y="390"/>
                            <mxPoint x="120" y="390"/>
                        </Array>
                    </mxGeometry>
                </mxCell>
                <mxCell id="9" style="edgeStyle=none;html=1;fontSize=18;" edge="1" parent="1" source="6">
                    <mxGeometry relative="1" as="geometry">
                        <mxPoint x="360" y="440" as="targetPoint"/>
                        <Array as="points">
                            <mxPoint x="240" y="390"/>
                            <mxPoint x="360" y="390"/>
                        </Array>
                    </mxGeometry>
                </mxCell>
                <mxCell id="6" value="&lt;font size=&quot;3&quot;&gt;Mamífero&lt;/font&gt;" style="html=1;" vertex="1" parent="1">
                    <mxGeometry x="150" y="280" width="180" height="60" as="geometry"/>
                </mxCell>
                <mxCell id="13" style="edgeStyle=none;html=1;fontSize=18;" edge="1" parent="1" source="7" target="12">
                    <mxGeometry relative="1" as="geometry"/>
                </mxCell>
                <mxCell id="7" value="&lt;font size=&quot;3&quot;&gt;Ovíparo&lt;/font&gt;" style="html=1;" vertex="1" parent="1">
                    <mxGeometry x="510" y="280" width="180" height="60" as="geometry"/>
                </mxCell>
                <mxCell id="10" value="&lt;font size=&quot;3&quot;&gt;Gato&lt;/font&gt;" style="html=1;" vertex="1" parent="1">
                    <mxGeometry x="30" y="440" width="180" height="60" as="geometry"/>
                </mxCell>
                <mxCell id="11" value="&lt;font size=&quot;3&quot;&gt;Ornitorrinco&lt;/font&gt;" style="html=1;" vertex="1" parent="1">
                    <mxGeometry x="270" y="440" width="180" height="60" as="geometry"/>
                </mxCell>
                <mxCell id="12" value="&lt;font size=&quot;3&quot;&gt;Pollo&lt;/font&gt;" style="html=1;" vertex="1" parent="1">
                    <mxGeometry x="510" y="440" width="180" height="60" as="geometry"/>
                </mxCell>
            </root>
        </mxGraphModel>
    </diagram>
</mxfile>